<mxfile host="app.diagrams.net" agent="Mozilla/5.0 (Windows NT 10.0; Win64; x64) AppleWebKit/537.36 (KHTML, like Gecko) Chrome/127.0.0.0 Safari/537.36 Edg/127.0.0.0" version="26.0.2">
  <diagram name="Page-1" id="ctWxJxeNUy7DphOfHnDH">
    <mxGraphModel dx="1514" dy="3159" grid="1" gridSize="10" guides="1" tooltips="1" connect="1" arrows="1" fold="1" page="1" pageScale="1" pageWidth="827" pageHeight="1169" math="0" shadow="0">
      <root>
        <mxCell id="0" />
        <mxCell id="1" parent="0" />
        <mxCell id="PpVGrMzFs6KtHRNiPCBF-10" style="edgeStyle=orthogonalEdgeStyle;rounded=0;orthogonalLoop=1;jettySize=auto;html=1;exitX=1;exitY=0.5;exitDx=0;exitDy=0;entryX=0;entryY=0.5;entryDx=0;entryDy=0;" edge="1" parent="1" source="5DKyyrPRF5E8N-J9UGCE-48" target="5DKyyrPRF5E8N-J9UGCE-61">
          <mxGeometry relative="1" as="geometry" />
        </mxCell>
        <mxCell id="5DKyyrPRF5E8N-J9UGCE-48" value="&lt;div style=&quot;line-height: 1.3; font-family: FZHei-B01S; text-align: center; vertical-align: middle; color: rgb(25, 25, 26); font-size: 18px; font-style: normal; font-weight: normal;&quot;&gt;&lt;p&gt;&lt;span&gt;GNSS接收机&lt;/span&gt;&lt;/p&gt;&lt;/div&gt;" style="rounded=0;whiteSpace=wrap;html=1;" parent="1" vertex="1">
          <mxGeometry x="160" y="-1430" width="120" height="40" as="geometry" />
        </mxCell>
        <mxCell id="PpVGrMzFs6KtHRNiPCBF-23" style="edgeStyle=orthogonalEdgeStyle;rounded=0;orthogonalLoop=1;jettySize=auto;html=1;exitX=1;exitY=0.5;exitDx=0;exitDy=0;entryX=0;entryY=0.5;entryDx=0;entryDy=0;" edge="1" parent="1" source="5DKyyrPRF5E8N-J9UGCE-50" target="5DKyyrPRF5E8N-J9UGCE-70">
          <mxGeometry relative="1" as="geometry" />
        </mxCell>
        <mxCell id="5DKyyrPRF5E8N-J9UGCE-50" value="&lt;div style=&quot;line-height: 1.3; font-family: FZHei-B01S; text-align: center; vertical-align: middle; color: rgb(25, 25, 26); font-style: normal; font-weight: normal;&quot;&gt;&lt;p style=&quot;&quot;&gt;&lt;font style=&quot;font-size: 17px;&quot;&gt;激光测距值，测角值&lt;/font&gt;&lt;/p&gt;&lt;/div&gt;" style="rounded=0;whiteSpace=wrap;html=1;" parent="1" vertex="1">
          <mxGeometry x="480" y="-1760" width="120" height="60" as="geometry" />
        </mxCell>
        <mxCell id="PpVGrMzFs6KtHRNiPCBF-19" style="edgeStyle=orthogonalEdgeStyle;rounded=0;orthogonalLoop=1;jettySize=auto;html=1;exitX=1;exitY=0.5;exitDx=0;exitDy=0;entryX=0;entryY=0.5;entryDx=0;entryDy=0;" edge="1" parent="1" source="5DKyyrPRF5E8N-J9UGCE-53" target="5DKyyrPRF5E8N-J9UGCE-72">
          <mxGeometry relative="1" as="geometry" />
        </mxCell>
        <mxCell id="5DKyyrPRF5E8N-J9UGCE-53" value="&lt;div style=&quot;line-height: 1.3; font-family: FZHei-B01S; text-align: center; vertical-align: middle; color: rgb(25, 25, 26); font-style: normal; font-weight: normal;&quot;&gt;&lt;p style=&quot;&quot;&gt;&lt;font style=&quot;font-size: 17px;&quot;&gt;INS机械编排&lt;/font&gt;&lt;/p&gt;&lt;/div&gt;" style="rounded=0;whiteSpace=wrap;html=1;" parent="1" vertex="1">
          <mxGeometry x="480" y="-1598.75" width="120" height="60" as="geometry" />
        </mxCell>
        <mxCell id="PpVGrMzFs6KtHRNiPCBF-12" style="edgeStyle=orthogonalEdgeStyle;rounded=0;orthogonalLoop=1;jettySize=auto;html=1;exitX=1;exitY=0.5;exitDx=0;exitDy=0;entryX=0;entryY=0.5;entryDx=0;entryDy=0;" edge="1" parent="1" source="5DKyyrPRF5E8N-J9UGCE-55" target="5DKyyrPRF5E8N-J9UGCE-75">
          <mxGeometry relative="1" as="geometry" />
        </mxCell>
        <mxCell id="5DKyyrPRF5E8N-J9UGCE-55" value="&lt;div style=&quot;line-height: 130%;&quot;&gt;&lt;font style=&quot;font-size: 17px;&quot;&gt;&lt;span style=&quot;background-color: light-dark(#ffffff, var(--ge-dark-color, #121212)); color: light-dark(rgb(0, 0, 0), rgb(255, 255, 255)); font-family: Garamond; line-height: 130%;&quot;&gt;数据预处理：&lt;/span&gt;&lt;br&gt;&lt;/font&gt;&lt;/div&gt;&lt;font style=&quot;font-size: 17px;&quot;&gt;&lt;font style=&quot;line-height: 130%;&quot;&gt;&lt;span style=&quot;background-color: light-dark(#ffffff, var(--ge-dark-color, #121212)); color: light-dark(rgb(0, 0, 0), rgb(255, 255, 255)); font-family: Garamond;&quot;&gt;1.周跳探测&lt;/span&gt;&lt;br&gt;&lt;span style=&quot;background-color: light-dark(#ffffff, var(--ge-dark-color, #121212)); color: light-dark(rgb(0, 0, 0), rgb(255, 255, 255)); font-family: Garamond;&quot;&gt;2.粗差探测&lt;/span&gt;&lt;br&gt;&lt;/font&gt;&lt;span style=&quot;background-color: light-dark(#ffffff, var(--ge-dark-color, #121212)); color: light-dark(rgb(0, 0, 0), rgb(255, 255, 255)); font-family: Garamond; line-height: 130%;&quot;&gt;&lt;font style=&quot;line-height: 130%;&quot;&gt;3.INS辅助模糊度固定以及辅助周跳探测&lt;/font&gt;&lt;/span&gt;&lt;/font&gt;&lt;font style=&quot;forced-color-adjust: none;&quot;&gt;&lt;br&gt;&lt;/font&gt;" style="rounded=0;whiteSpace=wrap;html=1;fontSize=11;textOpacity=90;" parent="1" vertex="1">
          <mxGeometry x="460" y="-1470" width="220" height="120" as="geometry" />
        </mxCell>
        <mxCell id="PpVGrMzFs6KtHRNiPCBF-24" style="edgeStyle=orthogonalEdgeStyle;rounded=0;orthogonalLoop=1;jettySize=auto;html=1;exitX=1;exitY=0.5;exitDx=0;exitDy=0;entryX=0;entryY=0.5;entryDx=0;entryDy=0;" edge="1" parent="1" source="5DKyyrPRF5E8N-J9UGCE-57" target="5DKyyrPRF5E8N-J9UGCE-50">
          <mxGeometry relative="1" as="geometry" />
        </mxCell>
        <mxCell id="5DKyyrPRF5E8N-J9UGCE-57" value="&lt;div style=&quot;font-family: FZHei-B01S; text-align: center; vertical-align: middle; color: rgb(25, 25, 26); font-style: normal; font-weight: normal; line-height: 100%;&quot;&gt;&lt;p&gt;&lt;font style=&quot;line-height: 130%; font-size: 17px;&quot;&gt;特征识别标靶控制点&lt;/font&gt;&lt;/p&gt;&lt;/div&gt;" style="rounded=0;whiteSpace=wrap;html=1;" parent="1" vertex="1">
          <mxGeometry x="320" y="-1760" width="120" height="60" as="geometry" />
        </mxCell>
        <mxCell id="PpVGrMzFs6KtHRNiPCBF-18" style="edgeStyle=orthogonalEdgeStyle;rounded=0;orthogonalLoop=1;jettySize=auto;html=1;exitX=1;exitY=0.5;exitDx=0;exitDy=0;entryX=0;entryY=0.5;entryDx=0;entryDy=0;" edge="1" parent="1" source="5DKyyrPRF5E8N-J9UGCE-59" target="5DKyyrPRF5E8N-J9UGCE-53">
          <mxGeometry relative="1" as="geometry" />
        </mxCell>
        <mxCell id="5DKyyrPRF5E8N-J9UGCE-59" value="&lt;div style=&quot;&quot;&gt;&lt;font style=&quot;font-size: 17px;&quot;&gt;&lt;span style=&quot;color: light-dark(rgb(25, 25, 26), rgb(216, 216, 217)); font-family: FZHei-B01S; background-color: transparent;&quot;&gt;加速度&lt;/span&gt;&lt;br&gt;&lt;/font&gt;&lt;/div&gt;&lt;div style=&quot;font-family: FZHei-B01S; vertical-align: middle; color: rgb(25, 25, 26); font-style: normal; font-weight: normal; line-height: 100%;&quot;&gt;&lt;p style=&quot;&quot;&gt;&lt;span style=&quot;color: light-dark(rgb(25, 25, 26), rgb(216, 216, 217)); background-color: transparent;&quot;&gt;&lt;font style=&quot;font-size: 17px;&quot;&gt;角速度&lt;/font&gt;&lt;/span&gt;&lt;/p&gt;&lt;/div&gt;" style="rounded=0;whiteSpace=wrap;html=1;opacity=80;align=center;" parent="1" vertex="1">
          <mxGeometry x="320" y="-1598.75" width="120" height="60" as="geometry" />
        </mxCell>
        <mxCell id="PpVGrMzFs6KtHRNiPCBF-11" style="edgeStyle=orthogonalEdgeStyle;rounded=0;orthogonalLoop=1;jettySize=auto;html=1;exitX=1;exitY=0.5;exitDx=0;exitDy=0;entryX=0;entryY=0.5;entryDx=0;entryDy=0;" edge="1" parent="1" source="5DKyyrPRF5E8N-J9UGCE-61" target="5DKyyrPRF5E8N-J9UGCE-55">
          <mxGeometry relative="1" as="geometry" />
        </mxCell>
        <mxCell id="5DKyyrPRF5E8N-J9UGCE-61" value="&lt;div style=&quot;font-family: FZHei-B01S; vertical-align: middle; color: rgb(25, 25, 26); line-height: 60%;&quot;&gt;&lt;p&gt;&lt;font style=&quot;line-height: 60%; font-size: 17px;&quot;&gt;伪距观测值&lt;/font&gt;&lt;/p&gt;&lt;p&gt;&lt;font style=&quot;line-height: 60%; font-size: 17px;&quot;&gt;载波观测值&lt;/font&gt;&lt;/p&gt;&lt;/div&gt;" style="rounded=0;whiteSpace=wrap;html=1;fontSize=11;" parent="1" vertex="1">
          <mxGeometry x="320" y="-1440" width="120" height="60" as="geometry" />
        </mxCell>
        <mxCell id="PpVGrMzFs6KtHRNiPCBF-25" style="edgeStyle=orthogonalEdgeStyle;rounded=0;orthogonalLoop=1;jettySize=auto;html=1;exitX=1;exitY=0.5;exitDx=0;exitDy=0;" edge="1" parent="1" source="5DKyyrPRF5E8N-J9UGCE-63" target="5DKyyrPRF5E8N-J9UGCE-57">
          <mxGeometry relative="1" as="geometry" />
        </mxCell>
        <mxCell id="5DKyyrPRF5E8N-J9UGCE-63" value="&lt;div style=&quot;line-height: 1.3; font-family: FZHei-B01S; vertical-align: middle; color: rgb(25, 25, 26);&quot;&gt;&lt;p style=&quot;line-height: 100%;&quot;&gt;&lt;font style=&quot;font-size: 17px;&quot;&gt;激光扫描仪&lt;/font&gt;&lt;/p&gt;&lt;/div&gt;" style="rounded=0;whiteSpace=wrap;html=1;" parent="1" vertex="1">
          <mxGeometry x="160" y="-1750" width="120" height="40" as="geometry" />
        </mxCell>
        <mxCell id="5DKyyrPRF5E8N-J9UGCE-68" value="&lt;div style=&quot;line-height: 1.3; font-family: FZHei-B01S; text-align: center; vertical-align: middle; color: rgb(25, 25, 26); font-style: normal; font-weight: normal;&quot;&gt;&lt;p style=&quot;&quot;&gt;&lt;br&gt;&lt;/p&gt;&lt;/div&gt;" style="rounded=0;whiteSpace=wrap;html=1;" parent="1" vertex="1">
          <mxGeometry x="880" y="-1620" width="80" height="120" as="geometry" />
        </mxCell>
        <mxCell id="PpVGrMzFs6KtHRNiPCBF-20" style="edgeStyle=orthogonalEdgeStyle;rounded=0;orthogonalLoop=1;jettySize=auto;html=1;exitX=1;exitY=0.5;exitDx=0;exitDy=0;entryX=0;entryY=0.5;entryDx=0;entryDy=0;" edge="1" parent="1" source="5DKyyrPRF5E8N-J9UGCE-70" target="5DKyyrPRF5E8N-J9UGCE-78">
          <mxGeometry relative="1" as="geometry" />
        </mxCell>
        <mxCell id="5DKyyrPRF5E8N-J9UGCE-70" value="&lt;div style=&quot;line-height: 1.3; font-family: FZHei-B01S; text-align: center; vertical-align: middle; color: rgb(25, 25, 26); font-style: normal; font-weight: normal;&quot;&gt;&lt;p style=&quot;&quot;&gt;&lt;font style=&quot;font-size: 17px;&quot;&gt;点云中靶点坐标&lt;/font&gt;&lt;/p&gt;&lt;/div&gt;" style="rounded=0;whiteSpace=wrap;html=1;" parent="1" vertex="1">
          <mxGeometry x="640" y="-1760" width="120" height="60" as="geometry" />
        </mxCell>
        <mxCell id="5DKyyrPRF5E8N-J9UGCE-72" value="&lt;div style=&quot;line-height: 1.3; font-family: FZHei-B01S; text-align: center; vertical-align: middle; color: rgb(25, 25, 26); font-style: normal; font-weight: normal;&quot;&gt;&lt;p style=&quot;&quot;&gt;&lt;font style=&quot;font-size: 17px;&quot;&gt;惯导误差&lt;/font&gt;&lt;/p&gt;&lt;/div&gt;" style="rounded=0;whiteSpace=wrap;html=1;" parent="1" vertex="1">
          <mxGeometry x="640" y="-1598.75" width="120" height="60" as="geometry" />
        </mxCell>
        <mxCell id="PpVGrMzFs6KtHRNiPCBF-13" style="edgeStyle=orthogonalEdgeStyle;rounded=0;orthogonalLoop=1;jettySize=auto;html=1;exitX=0.5;exitY=0;exitDx=0;exitDy=0;entryX=0.5;entryY=1;entryDx=0;entryDy=0;" edge="1" parent="1" source="5DKyyrPRF5E8N-J9UGCE-75" target="5DKyyrPRF5E8N-J9UGCE-72">
          <mxGeometry relative="1" as="geometry" />
        </mxCell>
        <mxCell id="PpVGrMzFs6KtHRNiPCBF-29" style="edgeStyle=orthogonalEdgeStyle;rounded=0;orthogonalLoop=1;jettySize=auto;html=1;exitX=1;exitY=0.5;exitDx=0;exitDy=0;" edge="1" parent="1" source="5DKyyrPRF5E8N-J9UGCE-75" target="5DKyyrPRF5E8N-J9UGCE-68">
          <mxGeometry relative="1" as="geometry" />
        </mxCell>
        <mxCell id="5DKyyrPRF5E8N-J9UGCE-75" value="&lt;div style=&quot;font-family: FZHei-B01S; text-align: center; vertical-align: middle; color: rgb(25, 25, 26); font-style: normal; font-weight: normal; line-height: 100%;&quot;&gt;&lt;p&gt;&lt;span&gt;&lt;font style=&quot;line-height: 100%; font-size: 17px;&quot;&gt;INS/GNSS松组合&lt;/font&gt;&lt;/span&gt;&lt;/p&gt;&lt;p&gt;&lt;span&gt;&lt;font style=&quot;line-height: 100%; font-size: 17px;&quot;&gt;INS/GNSS紧组合&lt;/font&gt;&lt;/span&gt;&lt;/p&gt;&lt;/div&gt;" style="rounded=0;whiteSpace=wrap;html=1;" parent="1" vertex="1">
          <mxGeometry x="720" y="-1440" width="160" height="60" as="geometry" />
        </mxCell>
        <mxCell id="PpVGrMzFs6KtHRNiPCBF-22" style="edgeStyle=orthogonalEdgeStyle;rounded=0;orthogonalLoop=1;jettySize=auto;html=1;exitX=0.5;exitY=1;exitDx=0;exitDy=0;entryX=0.5;entryY=0;entryDx=0;entryDy=0;" edge="1" parent="1" source="5DKyyrPRF5E8N-J9UGCE-78" target="5DKyyrPRF5E8N-J9UGCE-72">
          <mxGeometry relative="1" as="geometry" />
        </mxCell>
        <mxCell id="PpVGrMzFs6KtHRNiPCBF-30" style="edgeStyle=orthogonalEdgeStyle;rounded=0;orthogonalLoop=1;jettySize=auto;html=1;exitX=1;exitY=0.5;exitDx=0;exitDy=0;entryX=0.5;entryY=0;entryDx=0;entryDy=0;" edge="1" parent="1" source="5DKyyrPRF5E8N-J9UGCE-78" target="5DKyyrPRF5E8N-J9UGCE-68">
          <mxGeometry relative="1" as="geometry" />
        </mxCell>
        <mxCell id="5DKyyrPRF5E8N-J9UGCE-78" value="&lt;div style=&quot;line-height: 1.3; font-family: FZHei-B01S; text-align: center; vertical-align: middle; color: rgb(25, 25, 26); font-style: normal; font-weight: normal;&quot;&gt;&lt;p style=&quot;&quot;&gt;&lt;font style=&quot;font-size: 17px;&quot;&gt;INS/LiDAR组合滤波&lt;/font&gt;&lt;/p&gt;&lt;/div&gt;" style="rounded=0;whiteSpace=wrap;html=1;" parent="1" vertex="1">
          <mxGeometry x="800" y="-1760" width="120" height="60" as="geometry" />
        </mxCell>
        <mxCell id="PpVGrMzFs6KtHRNiPCBF-26" style="edgeStyle=orthogonalEdgeStyle;rounded=0;orthogonalLoop=1;jettySize=auto;html=1;exitX=0.5;exitY=0;exitDx=0;exitDy=0;entryX=0.5;entryY=0;entryDx=0;entryDy=0;" edge="1" parent="1" source="5DKyyrPRF5E8N-J9UGCE-80" target="5DKyyrPRF5E8N-J9UGCE-78">
          <mxGeometry relative="1" as="geometry" />
        </mxCell>
        <mxCell id="5DKyyrPRF5E8N-J9UGCE-80" value="&lt;div style=&quot;line-height: 1.3; font-family: FZHei-B01S; text-align: center; vertical-align: middle; color: rgb(25, 25, 26); font-style: normal; font-weight: normal;&quot;&gt;&lt;p style=&quot;&quot;&gt;&lt;font style=&quot;font-size: 17px;&quot;&gt;CPⅢ靶点坐标&lt;/font&gt;&lt;/p&gt;&lt;/div&gt;" style="rounded=0;whiteSpace=wrap;html=1;direction=south;" parent="1" vertex="1">
          <mxGeometry x="700" y="-1830" width="130" height="60" as="geometry" />
        </mxCell>
        <mxCell id="PpVGrMzFs6KtHRNiPCBF-17" style="edgeStyle=orthogonalEdgeStyle;rounded=0;orthogonalLoop=1;jettySize=auto;html=1;exitX=1;exitY=0.5;exitDx=0;exitDy=0;entryX=0;entryY=0.5;entryDx=0;entryDy=0;" edge="1" parent="1" source="5DKyyrPRF5E8N-J9UGCE-83" target="5DKyyrPRF5E8N-J9UGCE-59">
          <mxGeometry relative="1" as="geometry" />
        </mxCell>
        <mxCell id="5DKyyrPRF5E8N-J9UGCE-83" value="&lt;div style=&quot;line-height: 1.3; font-family: FZHei-B01S; vertical-align: middle; color: rgb(25, 25, 26);&quot;&gt;&lt;p style=&quot;line-height: 100%;&quot;&gt;&lt;font style=&quot;font-size: 17px;&quot;&gt;IMU&lt;/font&gt;&lt;/p&gt;&lt;/div&gt;" style="rounded=0;whiteSpace=wrap;html=1;" parent="1" vertex="1">
          <mxGeometry x="160" y="-1588.75" width="120" height="40" as="geometry" />
        </mxCell>
        <mxCell id="PpVGrMzFs6KtHRNiPCBF-3" value="&lt;span style=&quot;color: rgb(25, 25, 26); font-family: FZHei-B01S; font-size: 19px;&quot;&gt;GNSS/INS/LIDAR多源融合的铁路无缝高精度定位算法&lt;/span&gt;" style="text;html=1;align=center;verticalAlign=middle;whiteSpace=wrap;rounded=0;rotation=0;" vertex="1" parent="1">
          <mxGeometry x="160" y="-1830" width="520" height="54.38" as="geometry" />
        </mxCell>
        <mxCell id="PpVGrMzFs6KtHRNiPCBF-6" style="edgeStyle=orthogonalEdgeStyle;rounded=0;orthogonalLoop=1;jettySize=auto;html=1;exitX=0.5;exitY=1;exitDx=0;exitDy=0;" edge="1" parent="1" source="5DKyyrPRF5E8N-J9UGCE-57" target="5DKyyrPRF5E8N-J9UGCE-57">
          <mxGeometry relative="1" as="geometry" />
        </mxCell>
        <mxCell id="PpVGrMzFs6KtHRNiPCBF-27" value="&lt;span style=&quot;color: rgb(25, 25, 26); font-family: FZHei-B01S;&quot;&gt;INS&lt;/span&gt;&lt;div&gt;&lt;span style=&quot;color: rgb(25, 25, 26); font-family: FZHei-B01S;&quot;&gt;/GNSS&lt;/span&gt;&lt;div&gt;&lt;span style=&quot;color: rgb(25, 25, 26); font-family: FZHei-B01S;&quot;&gt;/LiDAR无缝定位&lt;/span&gt;&lt;/div&gt;&lt;/div&gt;" style="text;html=1;align=center;verticalAlign=middle;whiteSpace=wrap;rounded=0;rotation=0;fontSize=17;" vertex="1" parent="1">
          <mxGeometry x="882.5" y="-1610.62" width="75" height="98.75" as="geometry" />
        </mxCell>
      </root>
    </mxGraphModel>
  </diagram>
</mxfile>
